<?xml version="1.0" encoding="UTF-8"?>
<svg width="12px" height="12px" viewBox="0 0 12 12" version="1.1" xmlns="http://www.w3.org/2000/svg" xmlns:xlink="http://www.w3.org/1999/xlink">
    <!-- Generator: Sketch 55.1 (78136) - https://sketchapp.com -->
    <title>关闭</title>
    <desc>Created with Sketch.</desc>
    <g id="设计稿0819" stroke="none" stroke-width="1" fill="none" fill-rule="evenodd">
        <g id="切图_WAP_反馈系统" transform="translate(-158.000000, -363.000000)" fill="#B1B1B1" fill-rule="nonzero">
            <g id="关闭" transform="translate(158.000000, 363.000000)">
                <path d="M10.6,11.5 C10.4,11.5 10.1,11.4 9.99999999,11.2 L5.99999999,7.2 L1.99999999,11.2 C1.8,11.4 1.59999998,11.5 1.39999999,11.5 C1.2,11.5 0.9,11.4 0.799999992,11.2 C0.6,11 0.499999986,10.8 0.499999986,10.6 C0.499999986,10.4 0.6,10.1 0.799999992,10 L4.8,6 L0.799999992,1.99999999 C0.399999984,1.59999998 0.399999984,1.09999999 0.799999992,0.700000008 C0.999999986,0.500000016 1.2,0.400000008 1.39999999,0.400000008 C1.59999998,0.400000008 1.89999998,0.500000016 1.99999999,0.700000008 L5.99999999,4.69999999 L9.99999999,0.700000008 C10.2,0.500000016 10.4,0.400000008 10.6,0.400000008 C10.8,0.400000008 11.1,0.500000016 11.2,0.700000008 C11.6,1.10000002 11.6,1.60000001 11.2,1.99999999 L7.2,6 L11.2,10 C11.6,10.4 11.6,10.9 11.2,11.3 C11.1,11.4 10.9,11.5 10.6,11.5 L10.6,11.5 Z" id="路径"></path>
            </g>
        </g>
    </g>
</svg>