<?xml version="1.0" encoding="UTF-8"?>
<svg width="27px" height="29px" viewBox="0 0 27 29" version="1.1" xmlns="http://www.w3.org/2000/svg" xmlns:xlink="http://www.w3.org/1999/xlink">
    <!-- Generator: Sketch 55.1 (78136) - https://sketchapp.com -->
    <title>灯泡</title>
    <desc>Created with Sketch.</desc>
    <g id="设计稿0819" stroke="none" stroke-width="1" fill="none" fill-rule="evenodd">
        <g id="切图_WAP_反馈系统" transform="translate(-375.000000, -302.000000)" fill="#FED200" fill-rule="nonzero">
            <g id="灯泡" transform="translate(375.000000, 302.000000)">
                <path d="M9.35999999,26.52 L17.16,26.52 L17.16,28.08 L9.35999999,28.08 L9.35999999,26.52 Z M22.39068,3.02639999 L23.4936,4.12776 L21.28776,6.33516001 L20.18484,5.23223999 L22.39068,3.02639999 Z M4.12932,3.02639999 L6.3336,5.22912001 L5.23067999,6.33204 L3.02328001,4.1262 L4.12932,3.02639999 Z M23.4,12.48 L26.52,12.48 L26.52,14.04 L23.4,14.04 L23.4,12.48 Z M0,12.48 L3.12000001,12.48 L3.12000001,14.04 L0,14.04 L0,12.48 Z M12.48,0 L14.04,0 L14.04,3.12000001 L12.48,3.12000001 L12.48,0 Z M13.26,4.68000001 C8.58,4.68000001 4.68000001,8.58 4.68000001,13.26 C4.68000001,16.536 6.24000001,19.5 9.35999999,20.904 L9.35999999,24.96 L17.16,24.96 L17.16,20.904 C20.28,19.5 21.84,16.536 21.84,13.26 C21.84,8.58 17.94,4.68000001 13.26,4.68000001 L13.26,4.68000001 Z M16.38,19.5 L15.6,19.968 L15.6,23.4 L10.92,23.4 L10.92,19.968 L10.14,19.5 C7.64400001,18.252 6.24000001,15.912 6.24000001,13.26 C6.24000001,9.35999999 9.35999999,6.24000001 13.26,6.24000001 C17.16,6.24000001 20.28,9.35999999 20.28,13.26 C20.28,15.912 18.876,18.252 16.38,19.5 Z" id="形状"></path>
                <polygon id="路径" points="9.35999999 14.04 12.48 14.04 12.48 21.84 14.04 21.84 14.04 14.04 17.16 14.04 17.16 12.48 9.35999999 12.48"></polygon>
            </g>
        </g>
    </g>
</svg>