<?xml version="1.0" encoding="UTF-8"?>
<svg width="26px" height="18px" viewBox="0 0 26 18" version="1.1" xmlns="http://www.w3.org/2000/svg" xmlns:xlink="http://www.w3.org/1999/xlink">
    <!-- Generator: Sketch 55.1 (78136) - https://sketchapp.com -->
    <title>形状</title>
    <desc>Created with Sketch.</desc>
    <g id="设计稿0819" stroke="none" stroke-width="1" fill="none" fill-rule="evenodd">
        <g id="切图_WAP_反馈系统" transform="translate(-218.000000, -209.000000)" fill="#DBDBDB" fill-rule="nonzero">
            <path d="M243.959933,221.539523 C243.652832,219.109476 241.491431,217.349174 239.07265,217.349174 L237.82085,217.349174 L237.82085,216.154895 C237.82085,212.477228 235.089119,209.261862 231.468259,209.015893 C227.496428,208.746218 224.179744,211.943803 224.179744,215.911891 L224.179744,217.349174 L222.927944,217.349174 C220.509163,217.349174 218.350686,219.106513 218.040661,221.539523 C217.666291,224.482249 219.927135,226.998237 222.758308,226.998237 L239.239361,226.998237 C242.070534,226.998237 244.331378,224.482249 243.959933,221.539523 L243.959933,221.539523 Z M235.734756,222.235064 L235.556098,222.39961 C235.201919,222.725815 234.628335,222.725815 234.27729,222.39961 L232.04863,220.268093 L232.04863,226.998237 C232.04863,227.002204 231.584749,226.998237 231.008031,226.998237 L230.992359,226.998237 C230.418776,226.998237 229.95176,226.998237 229.95176,226.998237 L229.95176,220.268093 L227.723101,222.39961 C227.368921,222.725815 226.795338,222.725815 226.444292,222.39961 L226.265635,222.235064 C225.911455,221.908858 225.911455,221.380579 226.265635,221.057261 L230.321612,217.242757 C230.506537,217.072437 230.75415,216.988721 230.998628,217.000268 C231.243106,216.991608 231.490719,217.072437 231.675644,217.242757 L235.731621,221.057261 C236.088935,221.380579 236.088935,221.908858 235.734756,222.235064 Z" id="形状"></path>
        </g>
    </g>
</svg>