<?xml version="1.0" encoding="UTF-8"?>
<svg width="20px" height="20px" viewBox="0 0 20 20" version="1.1" xmlns="http://www.w3.org/2000/svg" xmlns:xlink="http://www.w3.org/1999/xlink">
    <!-- Generator: Sketch 55.1 (78136) - https://sketchapp.com -->
    <title>形状</title>
    <desc>Created with Sketch.</desc>
    <g id="设计稿0819" stroke="none" stroke-width="1" fill="none" fill-rule="evenodd">
        <g id="切图_WAP_反馈系统" transform="translate(-304.000000, -207.000000)" fill="#DBDBDB" fill-rule="nonzero">
            <path d="M314,227 C308.477153,227 304,222.522847 304,217 C304,211.477153 308.477153,207 314,207 C319.522847,207 324,211.477153 324,217 C324,222.522847 319.522847,227 314,227 Z M310.5,216 C311.035898,216 311.531089,215.714102 311.799038,215.25 C312.066987,214.785898 312.066987,214.214102 311.799038,213.75 C311.531089,213.285898 311.035898,213 310.5,213 C309.671573,213 309,213.671573 309,214.5 C309,215.328427 309.671573,216 310.5,216 L310.5,216 Z M317.5,216 C318.035898,216 318.531089,215.714102 318.799038,215.25 C319.066987,214.785898 319.066987,214.214102 318.799038,213.75 C318.531089,213.285898 318.035898,213 317.5,213 C316.671573,213 316,213.671573 316,214.5 C316,215.328427 316.671573,216 317.5,216 L317.5,216 Z M318.28,221.811992 C317.011659,220.954403 315.515063,220.497344 313.984004,220.499988 C312.445996,220.499988 310.974004,220.954004 309.724004,221.79 C309.503447,221.946438 309.447225,222.249879 309.597095,222.474951 C309.746965,222.700022 310.048617,222.765163 310.278008,222.621992 C311.374586,221.888445 312.664677,221.497867 313.983984,221.5 C315.335977,221.5 316.623984,221.9 317.71998,222.64 C317.867798,222.746199 318.06165,222.763684 318.226085,222.685649 C318.390521,222.607614 318.499562,222.446387 318.510769,222.26472 C318.521976,222.083053 318.433578,221.909647 318.27998,221.811992 L318.28,221.811992 Z" id="形状"></path>
        </g>
    </g>
</svg>