<?xml version="1.0" encoding="UTF-8"?>
<svg width="25px" height="25px" viewBox="0 0 25 25" version="1.1" xmlns="http://www.w3.org/2000/svg" xmlns:xlink="http://www.w3.org/1999/xlink">
    <!-- Generator: Sketch 55.1 (78136) - https://sketchapp.com -->
    <title>路径</title>
    <desc>Created with Sketch.</desc>
    <g id="设计稿0819" stroke="none" stroke-width="1" fill="none" fill-rule="evenodd">
        <g id="切图_WAP_反馈系统" transform="translate(-156.000000, -308.000000)" fill="#DBDBDB" fill-rule="nonzero">
            <path d="M178.439732,317.973214 L170.959822,317.973214 L170.959822,310.493304 C170.959822,309.116821 169.843,308 168.466518,308 C167.090036,308 165.973214,309.116821 165.973214,310.493304 L165.973214,317.973214 L158.493304,317.973214 C157.116821,317.973214 156,319.090036 156,320.466518 C156,321.843 157.116821,322.959822 158.493304,322.959822 L165.973214,322.959822 L165.973214,330.439732 C165.973214,331.816215 167.090036,332.933036 168.466518,332.933036 C169.843,332.933036 170.959822,331.816215 170.959822,330.439732 L170.959822,322.959822 L178.439732,322.959822 C179.816215,322.959822 180.933036,321.843 180.933036,320.466518 C180.933036,319.090036 179.816215,317.973214 178.439732,317.973214 Z" id="路径"></path>
        </g>
    </g>
</svg>