<?xml version="1.0" encoding="UTF-8"?>
<svg width="16px" height="16px" viewBox="0 0 16 16" version="1.1" xmlns="http://www.w3.org/2000/svg" xmlns:xlink="http://www.w3.org/1999/xlink">
    <!-- Generator: Sketch 55.1 (78136) - https://sketchapp.com -->
    <title>关闭</title>
    <desc>Created with Sketch.</desc>
    <g id="设计稿0819" stroke="none" stroke-width="1" fill="none" fill-rule="evenodd">
        <g id="切图_WAP_反馈系统" transform="translate(-223.000000, -144.000000)" fill-rule="nonzero">
            <g id="关闭" transform="translate(223.000000, 144.000000)">
                <path d="M8,0 C3.581722,0 0,3.581722 0,8 C0,12.418278 3.581722,16 8,16 C12.418278,16 16,12.418278 16,8 C16,3.581722 12.418278,0 8,0 Z" id="形状" fill="#BDBDBD"></path>
                <path d="M11.54,10.12 C11.9321222,10.5121222 11.9321222,11.1478778 11.54,11.54 C11.1478778,11.9321222 10.5121222,11.9321222 10.12,11.54 L8,9.41 L5.88,11.54 C5.48787783,11.9321222 4.85212218,11.9321222 4.46000001,11.54 C4.06787784,11.1478778 4.06787784,10.5121222 4.46,10.12 L6.59,8 L4.46,5.88 C4.06787783,5.48787783 4.06787783,4.85212217 4.46,4.46 C4.85212217,4.06787783 5.48787783,4.06787783 5.88,4.46 L8,6.59 L10.12,4.46 C10.5121222,4.06787783 11.1478778,4.06787783 11.54,4.46 C11.9321222,4.85212217 11.9321222,5.48787783 11.54,5.88 L9.41,8 L11.54,10.12 Z" id="路径" fill="#FFFFFF"></path>
            </g>
        </g>
    </g>
</svg>